<svg width="1280" height="720" viewBox="0 0 1280 720" fill="none" xmlns="http://www.w3.org/2000/svg">
<g clip-path="url(#clip0_1_33)">
<path d="M0 0H1280V720H0V0Z" fill="#011434"/>
<g clip-path="url(#clip1_1_33)">
<path d="M1256.92 330.411L1235.39 349.086L1208.81 318.451C1205.72 314.883 1200.35 314.356 1196.97 317.29L1162.07 347.556L1135.43 316.834C1132.33 313.266 1126.96 312.74 1123.58 315.673L1082.5 351.305C1079.11 354.239 1078.87 359.631 1081.97 363.199L1140.85 431.083L1002.34 551.217L943.465 483.333C940.37 479.765 934.998 479.239 931.616 482.172L890.535 517.805C887.153 520.738 886.914 526.13 890.009 529.698L916.581 560.333L881.687 590.599C878.304 593.533 878.066 598.925 881.161 602.493L907.733 633.128L887.274 650.872C883.892 653.806 883.654 659.198 886.749 662.766L925.851 707.848C928.946 711.416 934.318 711.943 937.7 709.009L958.241 691.193L985.794 722.959C988.889 726.527 994.26 727.054 997.642 724.12L1032.54 693.854L1059.11 724.489C1062.2 728.057 1067.57 728.584 1070.96 725.65L1112.04 690.018C1115.42 687.084 1115.66 681.692 1112.56 678.124L1052.7 609.108L1191.21 488.974L1251.07 557.99C1254.16 561.558 1259.53 562.085 1262.92 559.151L1304 523.519C1307.38 520.585 1307.62 515.193 1304.52 511.625L1277.95 480.99L1312.85 450.724C1316.23 447.791 1316.47 442.399 1313.37 438.83L1285.82 407.064L1307.35 388.389C1310.73 385.456 1310.97 380.064 1307.88 376.496L1268.77 331.414C1265.6 327.917 1260.3 327.478 1256.92 330.411ZM946.993 678.225L932.639 690.675L932.564 690.588L904.86 658.648L919.214 646.198L946.993 678.225V678.225ZM1021.29 680.887L992.581 705.786L899.355 598.303L928.062 573.403L1021.29 680.887ZM1094.52 682.488L1065.81 707.388L908.045 525.493L936.752 500.593L1094.52 682.488ZM1179.95 476.165L1041.45 596.299L1041.37 596.212L1013.67 564.272L1152.17 444.138L1179.95 476.165ZM1286.48 515.989L1257.77 540.889L1100.01 358.994L1128.71 334.094L1286.48 515.989ZM1295.33 443.194L1266.62 468.094L1173.4 360.611L1202.1 335.711L1295.33 443.194ZM1289.76 380.773L1274.41 394.081L1246.71 362.141L1262.05 348.832L1289.76 380.773Z" fill="black" fill-opacity="0.1"/>
</g>
<g clip-path="url(#clip2_1_33)">
<path d="M1069.45 48.9423L1059.5 57.5678L1047.23 43.4182C1045.8 41.7701 1043.32 41.527 1041.76 42.8819L1025.64 56.8611L1013.33 42.6713C1011.9 41.0232 1009.42 40.7801 1007.86 42.1351L988.886 58.5929C987.324 59.9479 987.214 62.4382 988.643 64.0863L1015.84 95.4405L951.866 150.928L924.671 119.574C923.241 117.925 920.76 117.682 919.198 119.037L900.224 135.495C898.662 136.85 898.552 139.34 899.981 140.989L912.254 155.138L896.137 169.117C894.575 170.472 894.465 172.963 895.894 174.611L908.167 188.76L898.718 196.956C897.156 198.311 897.046 200.801 898.475 202.45L916.536 223.272C917.965 224.92 920.446 225.163 922.008 223.808L931.496 215.579L944.222 230.251C945.651 231.9 948.132 232.143 949.694 230.788L965.811 216.809L978.084 230.958C979.513 232.606 981.994 232.849 983.556 231.494L1002.53 215.037C1004.09 213.682 1004.2 211.191 1002.77 209.543L975.125 177.666L1039.1 122.179L1066.75 154.056C1068.18 155.704 1070.66 155.947 1072.22 154.592L1091.19 138.134C1092.76 136.779 1092.87 134.289 1091.44 132.641L1079.16 118.491L1095.28 104.512C1096.84 103.157 1096.95 100.667 1095.52 99.0187L1082.8 84.3466L1092.74 75.7211C1094.3 74.3661 1094.41 71.8758 1092.98 70.2277L1074.92 49.4053C1073.46 47.7902 1071.01 47.5873 1069.45 48.9423ZM926.301 209.59L919.671 215.34L919.636 215.3L906.84 200.547L913.47 194.797L926.301 209.59V209.59ZM960.616 210.819L947.357 222.32L904.297 172.676L917.557 161.175L960.616 210.819ZM994.44 211.559L981.181 223.059L908.311 139.046L921.571 127.546L994.44 211.559ZM1033.9 116.263L969.927 171.75L969.892 171.71L957.096 156.957L1021.07 101.47L1033.9 116.263ZM1083.1 134.657L1069.84 146.157L996.973 62.144L1010.23 50.6433L1083.1 134.657ZM1087.19 101.034L1073.93 112.535L1030.87 62.8908L1044.13 51.3902L1087.19 101.034ZM1084.62 72.2031L1077.53 78.35L1064.73 63.5974L1071.82 57.4505L1084.62 72.2031Z" fill="black" fill-opacity="0.1"/>
</g>
<g clip-path="url(#clip3_1_33)">
<path d="M380.917 454.411L359.386 473.086L332.815 442.451C329.72 438.883 324.349 438.356 320.966 441.29L286.072 471.556L259.425 440.834C256.33 437.266 250.959 436.74 247.577 439.673L206.495 475.306C203.113 478.239 202.875 483.631 205.97 487.199L264.85 555.083L126.345 675.217L67.4646 607.333C64.3696 603.765 58.9983 603.239 55.6161 606.172L14.5347 641.805C11.1525 644.738 10.9143 650.13 14.0093 653.698L40.5809 684.333L5.68646 714.599C2.30426 717.533 2.06607 722.925 5.16105 726.493L31.7326 757.128L11.2744 774.872C7.8922 777.806 7.65402 783.198 10.749 786.766L49.8514 831.848C52.9464 835.416 58.3177 835.943 61.6999 833.009L82.2406 815.193L109.793 846.959C112.888 850.528 118.26 851.054 121.642 848.12L156.536 817.854L183.108 848.489C186.203 852.057 191.574 852.584 194.956 849.65L236.038 814.018C239.42 811.084 239.658 805.692 236.563 802.124L176.702 733.108L315.207 612.974L375.068 681.99C378.163 685.558 383.535 686.085 386.917 683.151L427.998 647.519C431.38 644.585 431.619 639.193 428.524 635.625L401.952 604.99L436.846 574.724C440.229 571.791 440.467 566.399 437.372 562.83L409.819 531.064L431.35 512.389C434.732 509.456 434.97 504.064 431.875 500.496L392.773 455.414C389.595 451.917 384.299 451.478 380.917 454.411ZM70.993 802.225L56.6393 814.675L56.5638 814.588L28.8599 782.648L43.2137 770.198L70.993 802.225V802.225ZM145.289 804.887L116.581 829.786L23.3545 722.303L52.0619 697.403L145.289 804.887ZM218.521 806.488L189.813 831.388L32.0448 649.493L60.7522 624.593L218.521 806.488ZM303.952 600.165L165.447 720.299L165.372 720.212L137.668 688.272L276.173 568.138L303.952 600.165ZM410.481 639.989L381.774 664.889L224.005 482.994L252.713 458.094L410.481 639.989ZM419.329 567.194L390.622 592.094L297.395 484.611L326.103 459.711L419.329 567.194ZM413.757 504.773L398.413 518.081L370.71 486.141L386.053 472.832L413.757 504.773Z" fill="black" fill-opacity="0.1"/>
</g>
<g clip-path="url(#clip4_1_33)">
<path d="M66.9171 241.411L45.3865 260.086L18.815 229.451C15.72 225.883 10.3487 225.356 6.96646 228.29L-27.9279 258.556L-54.5749 227.834C-57.6699 224.266 -63.0412 223.74 -66.4234 226.673L-107.505 262.306C-110.887 265.239 -111.125 270.631 -108.03 274.199L-49.1501 342.083L-187.655 462.217L-246.535 394.333C-249.63 390.765 -255.002 390.239 -258.384 393.172L-299.465 428.805C-302.847 431.738 -303.086 437.13 -299.991 440.698L-273.419 471.333L-308.314 501.599C-311.696 504.533 -311.934 509.925 -308.839 513.493L-282.267 544.128L-302.726 561.872C-306.108 564.806 -306.346 570.198 -303.251 573.766L-264.149 618.848C-261.054 622.416 -255.682 622.943 -252.3 620.009L-231.759 602.193L-204.206 633.959C-201.112 637.528 -195.74 638.054 -192.358 635.12L-157.464 604.854L-130.892 635.489C-127.797 639.057 -122.426 639.584 -119.044 636.65L-77.9622 601.018C-74.58 598.084 -74.3418 592.692 -77.4368 589.124L-137.298 520.108L1.20695 399.974L61.0684 468.99C64.1634 472.558 69.5347 473.085 72.9169 470.151L113.998 434.519C117.38 431.585 117.619 426.193 114.524 422.625L87.9521 391.99L122.847 361.724C126.229 358.791 126.467 353.399 123.372 349.83L95.819 318.064L117.35 299.389C120.732 296.456 120.97 291.064 117.875 287.496L78.7726 242.414C75.5952 238.917 70.2993 238.478 66.9171 241.411ZM-243.007 589.225L-257.361 601.675L-257.436 601.588L-285.14 569.648L-270.786 557.198L-243.007 589.225V589.225ZM-168.711 591.887L-197.419 616.786L-290.645 509.303L-261.938 484.403L-168.711 591.887ZM-95.4792 593.488L-124.187 618.388L-281.955 436.493L-253.248 411.593L-95.4792 593.488ZM-10.0477 387.165L-148.553 507.299L-148.628 507.212L-176.332 475.272L-37.827 355.138L-10.0477 387.165ZM96.4812 426.989L67.7738 451.889L-89.9948 269.994L-61.2873 245.094L96.4812 426.989ZM105.329 354.194L76.622 379.094L-16.6048 271.611L12.1026 246.711L105.329 354.194ZM99.7571 291.773L84.4134 305.081L56.7096 273.141L72.0533 259.832L99.7571 291.773Z" fill="black" fill-opacity="0.1"/>
</g>
<g clip-path="url(#clip5_1_33)">
<path d="M577.239 92.3698L587.548 118.941L549.74 133.609C545.337 135.317 543.028 140.196 544.647 144.37L561.354 187.434L523.439 202.143C519.035 203.852 516.726 208.73 518.346 212.904L538.015 263.604C539.635 267.778 544.629 269.822 549.033 268.114L632.811 235.612L699.126 406.545L615.348 439.047C610.944 440.756 608.635 445.634 610.254 449.808L629.924 500.508C631.543 504.682 636.538 506.727 640.941 505.018L678.749 490.35L695.456 533.415C697.075 537.589 702.07 539.633 706.474 537.925L744.281 523.257L754.076 548.505C755.696 552.679 760.691 554.724 765.094 553.016L820.731 531.431C825.135 529.722 827.444 524.844 825.825 520.67L815.99 495.32L855.194 480.111C859.598 478.402 861.907 473.524 860.287 469.35L843.58 426.286L881.388 411.618C885.791 409.91 888.1 405.032 886.481 400.858L866.812 350.158C865.192 345.984 860.198 343.939 855.794 345.648L770.62 378.692L704.305 207.758L789.479 174.714C793.883 173.006 796.192 168.128 794.572 163.953L774.903 113.254C773.284 109.08 768.289 107.035 763.885 108.743L726.078 123.411L709.371 80.3469C707.751 76.1729 702.757 74.1282 698.353 75.8366L659.149 91.046L648.841 64.4744C647.221 60.3004 642.226 58.2557 637.823 59.9641L582.186 81.5489C577.821 83.3592 575.62 88.1957 577.239 92.3698ZM799.986 501.529L806.859 519.243L806.751 519.285L767.333 534.578L760.46 516.863L799.986 501.529V501.529ZM827.576 432.495L841.321 467.923L708.673 519.385L694.928 483.957L827.576 432.495ZM853.81 364.104L867.554 399.533L643.073 486.622L629.328 451.193L853.81 364.104ZM688.448 214.027L754.763 384.96L754.655 385.002L715.237 400.295L648.922 229.361L688.448 214.027ZM761.901 127.2L775.646 162.629L551.164 249.718L537.419 214.289L761.901 127.2ZM696.369 94.293L710.114 129.722L577.465 181.184L563.72 145.755L696.369 94.293ZM635.731 78.4622L643.078 97.3982L603.659 112.691L596.313 93.7549L635.731 78.4622Z" fill="black" fill-opacity="0.1"/>
</g>
<g clip-path="url(#clip6_1_33)">
<path d="M411.942 309.201L398.144 294.558L417.893 275.949C420.194 273.781 420.304 270.076 418.136 267.776L395.774 244.043L415.579 225.381C417.88 223.214 417.99 219.509 415.822 217.208L389.495 189.267C387.327 186.967 383.622 186.857 381.322 189.024L337.559 230.26L248.797 136.058L292.559 94.8223C294.86 92.6548 294.97 88.9497 292.802 86.6494L266.475 58.7086C264.307 56.4082 260.602 56.2981 258.302 58.4656L238.553 77.0746L216.19 53.3417C214.023 51.0414 210.318 50.9312 208.017 53.0987L188.268 71.7077L175.157 57.7934C172.989 55.493 169.284 55.3829 166.984 57.5504L137.921 84.9352C135.621 87.1027 135.511 90.8078 137.678 93.1081L150.842 107.079L130.363 126.375C128.063 128.542 127.953 132.247 130.12 134.548L152.483 158.281L132.733 176.89C130.433 179.057 130.323 182.762 132.49 185.062L158.818 213.003C160.985 215.304 164.69 215.414 166.991 213.246L211.483 171.323L300.245 265.525L255.753 307.448C253.453 309.616 253.343 313.321 255.51 315.621L281.838 343.562C284.005 345.862 287.71 345.973 290.011 343.805L309.76 325.196L332.123 348.929C334.29 351.229 337.995 351.339 340.295 349.172L360.774 329.876L374.572 344.519C376.74 346.82 380.445 346.93 382.745 344.762L411.808 317.378C414.056 315.154 414.11 311.502 411.942 309.201ZM159.202 99.2014L150.003 89.439L150.059 89.3861L170.65 69.9842L179.849 79.7466L159.202 99.2014V99.2014ZM160.842 150.403L142.445 130.879L211.736 65.5886L230.133 85.1135L160.842 150.403ZM163.16 200.862L144.762 181.337L262.024 70.8465L280.421 90.3714L163.16 200.862ZM308.496 257.645L219.734 163.443L219.79 163.39L240.381 143.988L329.143 238.19L308.496 257.645ZM286.18 331.421L267.782 311.896L385.044 201.405L403.441 220.93L286.18 331.421ZM336.464 336.788L318.067 317.263L387.358 251.973L405.755 271.498L336.464 336.788ZM378.97 332.325L369.137 321.89L389.728 302.488L399.561 312.923L378.97 332.325Z" fill="black" fill-opacity="0.1"/>
</g>
</g>
<defs>
<clipPath id="clip0_1_33">
<rect width="1280" height="720" fill="white"/>
</clipPath>
<clipPath id="clip1_1_33">
<rect width="505.704" height="533.525" fill="white" transform="translate(732 484.352) rotate(-40.9371)"/>
</clipPath>
<clipPath id="clip2_1_33">
<rect width="233.573" height="246.423" fill="white" transform="translate(827 120.044) rotate(-40.9371)"/>
</clipPath>
<clipPath id="clip3_1_33">
<rect width="505.704" height="533.525" fill="white" transform="translate(-144 608.352) rotate(-40.9371)"/>
</clipPath>
<clipPath id="clip4_1_33">
<rect width="505.704" height="533.525" fill="white" transform="translate(-458 395.352) rotate(-40.9371)"/>
</clipPath>
<clipPath id="clip5_1_33">
<rect width="505.704" height="533.525" fill="white" transform="translate(544.909 638.438) rotate(-111.204)"/>
</clipPath>
<clipPath id="clip6_1_33">
<rect width="357" height="357" fill="white" transform="translate(282.001 -50.8256) rotate(46.7029)"/>
</clipPath>
</defs>
</svg>
