<svg width="370" height="473" viewBox="0 0 370 473" fill="none" xmlns="http://www.w3.org/2000/svg">
<path d="M234.3 214.627L204.236 184.562H210.781C216.666 184.562 222.309 182.225 226.47 178.064C230.631 173.903 232.969 168.259 232.969 162.375V140.188C232.969 134.303 230.631 128.66 226.47 124.499C222.309 120.338 216.666 118 210.781 118H33.2812C27.3968 118 21.7533 120.338 17.5923 124.499C13.4314 128.66 11.0938 134.303 11.0938 140.188V162.375C11.0938 168.259 13.4314 173.903 17.5923 178.064C21.7533 182.225 27.3968 184.562 33.2812 184.562H39.8266L9.7625 214.627C3.51927 220.862 0.00776793 229.322 0 238.145V439.719C0 448.545 3.50641 457.011 9.74785 463.252C15.9893 469.494 24.4545 473 33.2812 473H188.594C191.536 473 194.358 471.831 196.438 469.751C198.519 467.67 199.688 464.848 199.688 461.906C199.688 458.964 198.519 456.142 196.438 454.062C194.358 451.981 191.536 450.812 188.594 450.812H33.2812C30.339 450.812 27.5173 449.644 25.4368 447.563C23.3563 445.483 22.1875 442.661 22.1875 439.719V417.531H166.406C169.348 417.531 172.17 416.362 174.251 414.282C176.331 412.201 177.5 409.38 177.5 406.438C177.5 403.495 176.331 400.674 174.251 398.593C172.17 396.513 169.348 395.344 166.406 395.344H22.1875V262.219H232.969C235.911 262.219 238.733 261.05 240.813 258.969C242.894 256.889 244.062 254.067 244.062 251.125V238.145C244.055 229.322 240.543 220.862 234.3 214.627V214.627ZM33.2812 140.188H210.781V162.375H33.2812V140.188ZM221.875 240.031H22.1875V238.145C22.1791 236.685 22.4589 235.238 23.011 233.886C23.5631 232.535 24.3765 231.305 25.4047 230.269L71.1109 184.562H172.952L218.658 230.269C219.686 231.305 220.499 232.535 221.052 233.886C221.604 235.238 221.883 236.685 221.875 238.145V240.031Z" fill="#022251"/>
<path d="M155.312 317.688H133.125V295.5C133.125 292.558 131.956 289.736 129.876 287.656C127.795 285.575 124.973 284.406 122.031 284.406C119.089 284.406 116.267 285.575 114.187 287.656C112.106 289.736 110.938 292.558 110.938 295.5V317.688H88.75C85.8078 317.688 82.986 318.856 80.9055 320.937C78.8251 323.017 77.6562 325.839 77.6562 328.781C77.6562 331.723 78.8251 334.545 80.9055 336.626C82.986 338.706 85.8078 339.875 88.75 339.875H110.938V362.062C110.938 365.005 112.106 367.826 114.187 369.907C116.267 371.987 119.089 373.156 122.031 373.156C124.973 373.156 127.795 371.987 129.876 369.907C131.956 367.826 133.125 365.005 133.125 362.062V339.875H155.312C158.255 339.875 161.076 338.706 163.157 336.626C165.237 334.545 166.406 331.723 166.406 328.781C166.406 325.839 165.237 323.017 163.157 320.937C161.076 318.856 158.255 317.688 155.312 317.688Z" fill="#C60449"/>
<path d="M299.531 395.344H210.781C207.839 395.344 205.017 394.175 202.937 392.094C200.856 390.014 199.688 387.192 199.688 384.25C199.688 381.308 200.856 378.486 202.937 376.406C205.017 374.325 207.839 373.156 210.781 373.156H299.531C302.473 373.156 305.295 374.325 307.376 376.406C309.456 378.486 310.625 381.308 310.625 384.25C310.625 387.192 309.456 390.014 307.376 392.094C305.295 394.175 302.473 395.344 299.531 395.344Z" fill="#C60449"/>
<path d="M255.156 473C240.445 473 226.336 467.156 215.934 456.754C205.532 446.351 199.688 432.242 199.688 417.531V339.875C199.688 325.164 205.532 311.055 215.934 300.653C226.336 290.25 240.445 284.406 255.156 284.406C269.867 284.406 283.976 290.25 294.379 300.653C304.781 311.055 310.625 325.164 310.625 339.875V417.531C310.625 432.242 304.781 446.351 294.379 456.754C283.976 467.156 269.867 473 255.156 473ZM255.156 306.594C246.33 306.594 237.864 310.1 231.623 316.342C225.381 322.583 221.875 331.048 221.875 339.875V417.531C221.875 426.358 225.381 434.823 231.623 441.065C237.864 447.306 246.33 450.812 255.156 450.812C263.983 450.812 272.448 447.306 278.69 441.065C284.931 434.823 288.437 426.358 288.438 417.531V339.875C288.437 331.048 284.931 322.583 278.69 316.342C272.448 310.1 263.983 306.594 255.156 306.594V306.594Z" fill="#022251"/>
<path d="M272.824 229.636V228.358C272.966 214.793 274.386 203.997 277.085 195.972C279.784 187.946 283.619 181.447 288.591 176.476C293.562 171.504 299.528 166.923 306.489 162.733C310.679 160.176 314.443 157.158 317.781 153.678C321.119 150.126 323.747 146.043 325.665 141.426C327.653 136.81 328.648 131.696 328.648 126.085C328.648 119.125 327.014 113.088 323.747 107.974C320.48 102.861 316.112 98.919 310.643 96.1491C305.175 93.3793 299.102 91.9943 292.426 91.9943C286.602 91.9943 280.991 93.2017 275.594 95.6165C270.196 98.0312 265.686 101.831 262.064 107.016C258.442 112.2 256.347 118.983 255.778 127.364H228.932C229.5 115.29 232.625 104.956 238.307 96.3622C244.06 87.7685 251.624 81.1989 260.999 76.6534C270.445 72.1079 280.92 69.8352 292.426 69.8352C304.926 69.8352 315.793 72.321 325.026 77.2926C334.33 82.2642 341.503 89.0824 346.545 97.7471C351.659 106.412 354.216 116.284 354.216 127.364C354.216 135.176 353.009 142.243 350.594 148.564C348.25 154.885 344.841 160.531 340.366 165.503C335.963 170.474 330.636 174.878 324.386 178.713C318.136 182.619 313.129 186.739 309.365 191.071C305.601 195.332 302.866 200.411 301.162 206.305C299.457 212.2 298.534 219.551 298.392 228.358V229.636H272.824ZM286.46 292.705C281.205 292.705 276.695 290.822 272.93 287.058C269.166 283.294 267.284 278.784 267.284 273.528C267.284 268.273 269.166 263.763 272.93 259.999C276.695 256.234 281.205 254.352 286.46 254.352C291.716 254.352 296.226 256.234 299.99 259.999C303.754 263.763 305.636 268.273 305.636 273.528C305.636 277.009 304.749 280.205 302.973 283.116C301.268 286.028 298.96 288.372 296.048 290.148C293.207 291.852 290.011 292.705 286.46 292.705Z" fill="#C60449"/>
</svg>
